<?xml version="1.0" encoding="UTF-8" standalone="no"?>
<!-- Created with Inkscape (http://www.inkscape.org/) -->

<svg
   version="1.1"
   id="svg1"
   width="600.00092mm"
   height="380.00165mm"
   viewBox="0 0 2267.72 1436.2267"
   sodipodi:docname="Gitter.svg"
   inkscape:version="1.3.2 (091e20e, 2023-11-25, custom)"
   xmlns:inkscape="http://www.inkscape.org/namespaces/inkscape"
   xmlns:sodipodi="http://sodipodi.sourceforge.net/DTD/sodipodi-0.dtd"
   xmlns="http://www.w3.org/2000/svg"
   xmlns:svg="http://www.w3.org/2000/svg">
  <defs
     id="defs1">
    <clipPath
       clipPathUnits="userSpaceOnUse"
       id="clipPath238">
      <path
         d="M 0,651.97 H 651.97 V 0 H 0 Z"
         transform="translate(-1.1309001,-541.96971)"
         id="path238" />
    </clipPath>
    <clipPath
       clipPathUnits="userSpaceOnUse"
       id="clipPath240">
      <path
         d="M 0,651.97 H 651.97 V 0 H 0 Z"
         transform="translate(-1.1309001,-488.08981)"
         id="path240" />
    </clipPath>
    <clipPath
       clipPathUnits="userSpaceOnUse"
       id="clipPath242">
      <path
         d="M 0,651.97 H 651.97 V 0 H 0 Z"
         transform="translate(-1.1309001,-432.41551)"
         id="path242" />
    </clipPath>
    <clipPath
       clipPathUnits="userSpaceOnUse"
       id="clipPath244">
      <path
         d="M 0,651.97 H 651.97 V 0 H 0 Z"
         transform="translate(-1.1309001,-378.67291)"
         id="path244" />
    </clipPath>
    <clipPath
       clipPathUnits="userSpaceOnUse"
       id="clipPath256">
      <path
         d="M 0,651.97 H 651.97 V 0 H 0 Z"
         transform="translate(-2.1309001,-324.20411)"
         id="path256" />
    </clipPath>
    <clipPath
       clipPathUnits="userSpaceOnUse"
       id="clipPath246">
      <path
         d="M 0,651.97 H 651.97 V 0 H 0 Z"
         transform="translate(-1.1309001,-268.4609)"
         id="path246" />
    </clipPath>
    <clipPath
       clipPathUnits="userSpaceOnUse"
       id="clipPath248">
      <path
         d="M 0,651.97 H 651.97 V 0 H 0 Z"
         transform="translate(-1.1309001,-213.92381)"
         id="path248" />
    </clipPath>
    <clipPath
       clipPathUnits="userSpaceOnUse"
       id="clipPath250">
      <path
         d="M 0,651.97 H 651.97 V 0 H 0 Z"
         transform="translate(-1.1309001,-159.1816)"
         id="path250" />
    </clipPath>
    <clipPath
       clipPathUnits="userSpaceOnUse"
       id="clipPath254">
      <path
         d="M 0,651.97 H 651.97 V 0 H 0 Z"
         transform="translate(-1.1309001,-49.969699)"
         id="path254" />
    </clipPath>
    <clipPath
       clipPathUnits="userSpaceOnUse"
       id="clipPath252">
      <path
         d="M 0,651.97 H 651.97 V 0 H 0 Z"
         transform="translate(-1.1309001,-104.64361)"
         id="path252" />
    </clipPath>
  </defs>
  <sodipodi:namedview
     id="namedview1"
     pagecolor="#ffffff"
     bordercolor="#666666"
     borderopacity="1.0"
     inkscape:showpageshadow="2"
     inkscape:pageopacity="0.0"
     inkscape:pagecheckerboard="0"
     inkscape:deskcolor="#d1d1d1"
     showguides="false"
     inkscape:zoom="0.35355339"
     inkscape:cx="820.24387"
     inkscape:cy="728.31998"
     inkscape:window-width="1920"
     inkscape:window-height="1129"
     inkscape:window-x="1912"
     inkscape:window-y="-8"
     inkscape:window-maximized="1"
     inkscape:current-layer="g28"
     inkscape:document-units="mm">
    <inkscape:page
       x="0"
       y="0"
       inkscape:label="1"
       id="page1"
       width="2267.72"
       height="1436.2267"
       margin="150.51466 143.33333 150.52 72.656937"
       bleed="0" />
  </sodipodi:namedview>
  <g
     id="g28"
     inkscape:groupmode="layer"
     inkscape:label="Layer 1"
     style="display:inline">
    <path
       d="M 564.15491,0.1889765 V 868.67555 h 90.62506 V 750.93313 h -45.31351 v -3.02064 h 45.31351 V 688.3329 h -45.31351 v -3.02064 h 45.31351 v -59.57763 h -45.31351 v -3.02065 h 45.31351 V 563.1383 h -45.31351 v -3.02063 h 45.31351 v -59.57764 h -45.31351 v -3.02064 h 45.31351 v -59.57958 h -45.31351 v -3.02065 h 45.31351 v -59.57763 h -45.31351 v -3.02064 h 45.31351 v -59.57374 h -45.31351 v -3.02259 h 45.31351 v -59.57763 h -45.31351 v -3.02064 h 45.31351 v -59.57763 h -45.31351 v -3.02064 h 45.31351 v -59.57569 h -45.31351 v -3.02064 h 45.31351 V 0.1889765 Z"
       style="display:inline;fill:none;fill-rule:evenodd;stroke:#000000;stroke-width:0.377953;stroke-linecap:round;stroke-miterlimit:2;stroke-dasharray:none;stroke-opacity:1;paint-order:stroke fill markers"
       id="path3" />
    <path
       d="M 658.14924,0.1889765 V 868.67555 h 90.62507 V 750.93313 H 703.4608 v -3.02064 h 45.31351 V 688.3329 H 703.4608 v -3.02064 h 45.31351 V 625.73463 H 703.4608 v -3.02065 h 45.31351 V 563.1383 H 703.4608 v -3.02063 h 45.31351 V 500.54003 H 703.4608 v -3.02064 h 45.31351 V 437.93981 H 703.4608 v -3.02065 h 45.31351 V 375.34153 H 703.4608 v -3.02064 h 45.31351 V 312.74715 H 703.4608 v -3.02259 h 45.31351 V 250.14693 H 703.4608 v -3.02064 h 45.31351 V 187.54866 H 703.4608 v -3.02064 h 45.31351 V 124.95233 H 703.4608 v -3.02064 h 45.31351 V 0.1889765 Z"
       style="display:inline;fill:none;fill-rule:evenodd;stroke:#000000;stroke-width:0.377953;stroke-linecap:round;stroke-miterlimit:2;stroke-dasharray:none;stroke-opacity:1;paint-order:stroke fill markers"
       id="path4" />
    <path
       d="M 752.14358,0.1889765 V 868.67555 h 90.62506 V 750.93313 h -45.3135 v -3.02064 h 45.3135 V 688.3329 h -45.3135 v -3.02064 h 45.3135 v -59.57763 h -45.3135 v -3.02065 h 45.3135 V 563.1383 h -45.3135 v -3.02063 h 45.3135 v -59.57764 h -45.3135 v -3.02064 h 45.3135 v -59.57958 h -45.3135 v -3.02065 h 45.3135 v -59.57763 h -45.3135 v -3.02064 h 45.3135 v -59.57374 h -45.3135 v -3.02259 h 45.3135 v -59.57763 h -45.3135 v -3.02064 h 45.3135 v -59.57763 h -45.3135 v -3.02064 h 45.3135 v -59.57569 h -45.3135 v -3.02064 h 45.3135 V 0.1889765 Z"
       style="display:inline;fill:none;fill-rule:evenodd;stroke:#000000;stroke-width:0.377953;stroke-linecap:round;stroke-miterlimit:2;stroke-dasharray:none;stroke-opacity:1;paint-order:stroke fill markers"
       id="path5" />
    <path
       d="M 846.1379,0.1889765 V 868.67555 h 90.62513 V 750.93313 h -45.31358 v -3.02064 h 45.31358 V 688.3329 h -45.31358 v -3.02064 h 45.31358 v -59.57763 h -45.31358 v -3.02065 h 45.31358 V 563.1383 h -45.31358 v -3.02063 h 45.31358 v -59.57764 h -45.31358 v -3.02064 h 45.31358 v -59.57958 h -45.31358 v -3.02065 h 45.31358 v -59.57763 h -45.31358 v -3.02064 h 45.31358 v -59.57374 h -45.31358 v -3.02259 h 45.31358 v -59.57763 h -45.31358 v -3.02064 h 45.31358 v -59.57763 h -45.31358 v -3.02064 h 45.31358 v -59.57569 h -45.31358 v -3.02064 h 45.31358 V 0.1889765 Z"
       style="display:inline;fill:none;fill-rule:evenodd;stroke:#000000;stroke-width:0.377953;stroke-linecap:round;stroke-miterlimit:2;stroke-dasharray:none;stroke-opacity:1;paint-order:stroke fill markers"
       id="path6" />
    <path
       d="M 940.1323,0.1889765 V 868.67555 h 90.6251 V 750.93314 h -45.3135 v -3.0206 h 45.3135 v -59.57962 h -45.3135 v -3.0207 h 45.3135 V 625.7346 h -45.3135 v -3.02061 h 45.3135 v -59.57572 h -45.3135 v -3.0206 h 45.3135 v -59.57764 h -45.3135 v -3.02064 h 45.3135 v -59.57958 h -45.3135 v -3.02065 h 45.3135 v -59.57763 h -45.3135 v -3.02064 h 45.3135 v -59.57374 h -45.3135 v -3.02259 h 45.3135 v -59.57763 h -45.3135 v -3.02064 h 45.3135 v -59.57763 h -45.3135 v -3.02064 h 45.3135 v -59.57569 h -45.3135 v -3.02064 h 45.3135 V 0.1889765 Z"
       style="display:inline;fill:none;fill-rule:evenodd;stroke:#000000;stroke-width:0.377953;stroke-linecap:round;stroke-miterlimit:2;stroke-dasharray:none;stroke-opacity:1;paint-order:stroke fill markers"
       id="path7" />
    <path
       d="M 1034.1267,0.1889765 V 868.67555 h 90.6251 V 750.93313 h -45.3135 v -3.0206 h 45.3135 v -59.57962 h -45.3135 v -3.0207 h 45.3135 v -59.57762 h -45.3135 v -3.02061 h 45.3135 v -59.57572 h -45.3135 v -3.0206 h 45.3135 v -59.57763 h -45.3135 v -3.02064 h 45.3135 v -59.57958 h -45.3135 v -3.02065 h 45.3135 v -59.57763 h -45.3135 v -3.02064 h 45.3135 v -59.57374 h -45.3135 v -3.02259 h 45.3135 v -59.57763 h -45.3135 v -3.02064 h 45.3135 v -59.57763 h -45.3135 v -3.02064 h 45.3135 v -59.57569 h -45.3135 v -3.02064 h 45.3135 V 0.1889765 Z"
       style="display:inline;fill:none;fill-rule:evenodd;stroke:#000000;stroke-width:0.377953;stroke-linecap:round;stroke-miterlimit:2;stroke-dasharray:none;stroke-opacity:1;paint-order:stroke fill markers"
       id="path8" />
    <path
       d="M 1128.121,0.1889765 V 868.67555 h 90.6251 V 750.93316 h -45.3135 v -3.0207 h 45.3135 v -59.57952 h -45.3135 v -3.0207 h 45.3135 v -59.57762 h -45.3135 v -3.02061 h 45.3135 v -59.57572 h -45.3135 v -3.02062 h 45.3135 v -59.57764 h -45.3135 v -3.02064 h 45.3135 v -59.57958 h -45.3135 v -3.02065 h 45.3135 v -59.57763 h -45.3135 v -3.02064 h 45.3135 v -59.57374 h -45.3135 v -3.02259 h 45.3135 v -59.57763 h -45.3135 v -3.02064 h 45.3135 v -59.57763 h -45.3135 v -3.02064 h 45.3135 v -59.57569 h -45.3135 v -3.02064 h 45.3135 V 0.1889765 Z"
       style="display:inline;fill:none;fill-rule:evenodd;stroke:#000000;stroke-width:0.377953;stroke-linecap:round;stroke-miterlimit:2;stroke-dasharray:none;stroke-opacity:1;paint-order:stroke fill markers"
       id="path9" />
    <path
       d="M 1222.1154,0.1889765 V 868.67565 h 90.625 V 750.9331 h -45.3135 v -3.0206 h 45.3135 v -59.57962 h -45.3135 v -3.0206 h 45.3135 v -59.57762 h -45.3135 v -3.02071 h 45.3135 v -59.57562 h -45.3135 v -3.0207 h 45.3135 v -59.5776 h -45.3135 v -3.02064 h 45.3135 v -59.57958 h -45.3135 v -3.02065 h 45.3135 v -59.57763 h -45.3135 v -3.02064 h 45.3135 v -59.57374 h -45.3135 v -3.02259 h 45.3135 v -59.57763 h -45.3135 v -3.02064 h 45.3135 v -59.57763 h -45.3135 v -3.02064 h 45.3135 v -59.57569 h -45.3135 v -3.02064 h 45.3135 V 0.1889765 Z"
       style="display:inline;fill:none;fill-rule:evenodd;stroke:#000000;stroke-width:0.377953;stroke-linecap:round;stroke-miterlimit:2;stroke-dasharray:none;stroke-opacity:1;paint-order:stroke fill markers"
       id="path10" />
    <path
       d="M 94.183293,0.1889765 V 653.44138 h 90.625057 v -12.01231 h -45.3135 v -3.02064 h 45.3135 v -59.57958 h -45.3135 v -3.02064 h 45.3135 v -59.57959 h -45.3135 v -3.02064 h 45.3135 v -59.57373 h -45.3135 v -3.02064 h 45.3135 v -59.57763 h -45.3135 v -3.02065 h 45.3135 v -59.57958 h -45.3135 v -3.02064 h 45.3135 v -59.57764 h -45.3135 v -3.02063 h 45.3135 v -59.57568 h -45.3135 v -3.02065 h 45.3135 v -59.57763 h -45.3135 v -3.02064 h 45.3135 V 78.044606 h -45.3135 v -3.02064 h 45.3135 v -59.57569 h -45.3135 v -3.02064 h 45.3135 V 0.1889765 Z"
       style="display:inline;fill:none;fill-rule:evenodd;stroke:#000000;stroke-width:0.377953;stroke-linecap:round;stroke-miterlimit:2;stroke-dasharray:none;stroke-opacity:1;paint-order:stroke fill markers"
       id="path11" />
    <path
       d="M 0.188976,0.1889765 V 653.44138 h 90.62505 V 641.42907 H 45.500533 v -3.02064 H 90.814026 V 578.82885 H 45.500533 v -3.02064 H 90.814026 V 516.22862 H 45.500533 v -3.02064 H 90.814026 V 453.63425 H 45.500533 v -3.02064 H 90.814026 V 391.03598 H 45.500533 v -3.02065 H 90.814026 V 328.43575 H 45.500533 v -3.02064 H 90.814026 V 265.83747 H 45.500533 v -3.02063 H 90.814026 V 203.24116 H 45.500533 v -3.02065 H 90.814026 V 140.64288 H 45.500533 v -3.02064 H 90.814026 V 78.044606 H 45.500533 v -3.02064 H 90.814026 V 15.448276 H 45.500533 v -3.02064 H 90.814026 V 0.1889765 Z"
       style="display:inline;fill:none;fill-rule:evenodd;stroke:#000000;stroke-width:0.377953;stroke-linecap:round;stroke-miterlimit:2;stroke-dasharray:none;stroke-opacity:1;paint-order:stroke fill markers"
       id="path12" />
    <path
       d="M 282.17194,0.1889765 V 653.44135 h 90.62505 v -12.01228 h -45.3135 v -3.0206 h 45.3135 v -59.57962 h -45.3135 v -3.0206 h 45.3135 v -59.57962 h -45.3135 v -3.0206 h 45.3135 V 453.6343 h -45.3135 v -3.0207 h 45.3135 v -59.57762 h -45.3135 v -3.0206 h 45.3135 v -59.57962 h -45.3135 v -3.02064 h 45.3135 v -59.57764 h -45.3135 v -3.02064 h 45.3135 v -59.57568 h -45.3135 v -3.02064 h 45.3135 v -59.57763 h -45.3135 v -3.02065 h 45.3135 V 78.044606 h -45.3135 v -3.02064 h 45.3135 v -59.57568 h -45.3135 v -3.02064 h 45.3135 V 0.1889765 Z"
       style="display:inline;fill:none;fill-rule:evenodd;stroke:#000000;stroke-width:0.377953;stroke-linecap:round;stroke-miterlimit:2;stroke-dasharray:none;stroke-opacity:1;paint-order:stroke fill markers"
       id="path13" />
    <path
       d="M 188.17762,0.1889765 V 653.44135 h 90.62506 v -12.01228 h -45.3135 v -3.0206 h 45.3135 v -59.57962 h -45.3135 v -3.0206 h 45.3135 v -59.57962 h -45.3135 v -3.0206 h 45.3135 V 453.6343 h -45.3135 v -3.0207 h 45.3135 v -59.57762 h -45.3135 v -3.0206 h 45.3135 v -59.57962 h -45.3135 v -3.02064 h 45.3135 v -59.57764 h -45.3135 v -3.02064 h 45.3135 v -59.57568 h -45.3135 v -3.02064 h 45.3135 v -59.57763 h -45.3135 v -3.02065 h 45.3135 V 78.044606 h -45.3135 v -3.02064 h 45.3135 v -59.57568 h -45.3135 v -3.02064 h 45.3135 V 0.1889765 Z"
       style="display:inline;fill:none;fill-rule:evenodd;stroke:#000000;stroke-width:0.377953;stroke-linecap:round;stroke-miterlimit:2;stroke-dasharray:none;stroke-opacity:1;paint-order:stroke fill markers"
       id="path14" />
    <path
       d="m 1406.7348,0.1889765 h -90.6251 V 88.630496 h 45.3134 v 3.02065 h -45.3134 v 59.579594 h 45.3134 v 3.02064 h -45.3134 v 59.57763 h 45.3134 v 3.02064 h -45.3134 v 59.57763 h 45.3134 v 3.02259 h -45.3134 v 59.57374 h 45.3134 v 3.02064 h -45.3134 v 59.57763 h 45.3134 v 3.02064 h -45.3134 v 59.57959 h 45.3134 v 3.02064 h -45.3134 v 59.57764 h 45.3134 v 3.02063 h -45.3134 v 59.57568 h 45.3134 v 3.02064 h -45.3134 v 59.57765 h 45.3134 v 3.02063 h -45.3134 v 59.57764 h 45.3134 v 3.02063 h -45.3134 v 59.57959 h 45.3134 v 3.02064 h -45.3134 v 88.44153 h 90.6251 z"
       style="display:inline;fill:none;fill-rule:evenodd;stroke:#000000;stroke-width:0.377953;stroke-linecap:round;stroke-miterlimit:2;stroke-dasharray:none;stroke-opacity:1;paint-order:stroke fill markers"
       id="path15" />
    <path
       d="M 1500.7291,0.1889765 H 1410.104 V 88.630496 h 45.3135 v 3.02065 h -45.3135 v 59.579594 h 45.3135 v 3.02064 h -45.3135 v 59.57763 h 45.3135 v 3.02064 h -45.3135 v 59.57763 h 45.3135 v 3.02259 h -45.3135 v 59.57374 h 45.3135 v 3.02064 h -45.3135 v 59.57763 h 45.3135 v 3.02064 h -45.3135 v 59.57959 h 45.3135 v 3.02064 h -45.3135 v 59.57764 h 45.3135 v 3.02063 h -45.3135 v 59.57568 h 45.3135 v 3.02064 h -45.3135 v 59.57765 h 45.3135 v 3.02063 h -45.3135 v 59.57764 h 45.3135 v 3.02063 h -45.3135 v 59.57959 h 45.3135 v 3.02064 h -45.3135 v 88.44153 h 90.6251 z"
       style="display:inline;fill:none;fill-rule:evenodd;stroke:#000000;stroke-width:0.377953;stroke-linecap:round;stroke-miterlimit:2;stroke-dasharray:none;stroke-opacity:1;paint-order:stroke fill markers"
       id="path16" />
    <path
       d="m 1594.7234,0.1889765 h -90.625 V 88.630496 h 45.3134 v 3.02065 h -45.3134 v 59.579594 h 45.3134 v 3.02064 h -45.3134 v 59.57763 h 45.3134 v 3.02064 h -45.3134 v 59.57763 h 45.3134 v 3.02259 h -45.3134 v 59.57374 h 45.3134 v 3.02064 h -45.3134 v 59.57763 h 45.3134 v 3.02064 h -45.3134 v 59.57959 h 45.3134 v 3.02064 h -45.3134 v 59.57764 h 45.3134 v 3.02063 h -45.3134 v 59.57568 h 45.3134 v 3.02064 h -45.3134 v 59.57765 h 45.3134 v 3.02063 h -45.3134 v 59.57764 h 45.3134 v 3.02063 h -45.3134 v 59.57959 h 45.3134 v 3.02064 h -45.3134 v 88.44153 h 90.625 z"
       style="display:inline;fill:none;fill-rule:evenodd;stroke:#000000;stroke-width:0.377953;stroke-linecap:round;stroke-miterlimit:2;stroke-dasharray:none;stroke-opacity:1;paint-order:stroke fill markers"
       id="path17" />
    <path
       d="m 1688.7178,0.1889765 h -90.6251 V 88.630496 h 45.3134 v 3.02065 h -45.3134 v 59.579594 h 45.3134 v 3.02064 h -45.3134 v 59.57763 h 45.3134 v 3.02064 h -45.3134 v 59.57763 h 45.3134 v 3.02259 h -45.3134 v 59.57374 h 45.3134 v 3.02064 h -45.3134 v 59.57763 h 45.3134 v 3.02064 h -45.3134 v 59.57959 h 45.3134 v 3.02064 h -45.3134 v 59.57764 h 45.3134 v 3.02063 h -45.3134 v 59.57568 h 45.3134 v 3.02064 h -45.3134 v 59.57765 h 45.3134 v 3.02063 h -45.3134 v 59.57764 h 45.3134 v 3.02063 h -45.3134 v 59.57959 h 45.3134 v 3.02064 h -45.3134 v 88.44153 h 90.6251 z"
       style="display:inline;fill:none;fill-rule:evenodd;stroke:#000000;stroke-width:0.377953;stroke-linecap:round;stroke-miterlimit:2;stroke-dasharray:none;stroke-opacity:1;paint-order:stroke fill markers"
       id="path18" />
    <path
       d="M 1782.7121,0.1889765 H 1692.087 V 88.630496 h 45.3135 v 3.02065 h -45.3135 v 59.579594 h 45.3135 v 3.02064 h -45.3135 v 59.57763 h 45.3135 v 3.02064 h -45.3135 v 59.57763 h 45.3135 v 3.02259 h -45.3135 v 59.57374 h 45.3135 v 3.02064 h -45.3135 v 59.57763 h 45.3135 v 3.02064 h -45.3135 v 59.57959 h 45.3135 v 3.02064 h -45.3135 v 59.57764 h 45.3135 v 3.02063 h -45.3135 v 59.57568 h 45.3135 v 3.02064 h -45.3135 v 59.57765 h 45.3135 v 3.02063 h -45.3135 v 59.57764 h 45.3135 v 3.02063 h -45.3135 v 59.57959 h 45.3135 v 3.02064 h -45.3135 v 88.44153 h 90.6251 z"
       style="display:inline;fill:none;fill-rule:evenodd;stroke:#000000;stroke-width:0.377953;stroke-linecap:round;stroke-miterlimit:2;stroke-dasharray:none;stroke-opacity:1;paint-order:stroke fill markers"
       id="path19" />
    <path
       d="m 1876.7065,0.1889765 h -90.6251 V 88.630496 h 45.3134 v 3.02065 h -45.3134 v 59.579594 h 45.3134 v 3.02064 h -45.3134 v 59.57763 h 45.3134 v 3.02064 h -45.3134 v 59.57763 h 45.3134 v 3.02259 h -45.3134 v 59.57374 h 45.3134 v 3.02064 h -45.3134 v 59.57763 h 45.3134 v 3.02064 h -45.3134 v 59.57959 h 45.3134 v 3.02064 h -45.3134 v 59.57764 h 45.3134 v 3.02063 h -45.3134 v 59.57568 h 45.3134 v 3.02064 h -45.3134 v 59.57765 h 45.3134 v 3.02063 h -45.3134 v 59.57764 h 45.3134 v 3.02063 h -45.3134 v 59.57959 h 45.3134 v 3.02064 h -45.3134 v 88.44153 h 90.6251 z"
       style="display:inline;fill:none;fill-rule:evenodd;stroke:#000000;stroke-width:0.377953;stroke-linecap:round;stroke-miterlimit:2;stroke-dasharray:none;stroke-opacity:1;paint-order:stroke fill markers"
       id="path20" />
    <path
       d="m 1970.7009,0.1889765 h -90.6251 V 88.630496 h 45.3135 v 3.02065 h -45.3135 v 59.579594 h 45.3135 v 3.02064 h -45.3135 v 59.57763 h 45.3135 v 3.02064 h -45.3135 v 59.57763 h 45.3135 v 3.02259 h -45.3135 v 59.57374 h 45.3135 v 3.02064 h -45.3135 v 59.57763 h 45.3135 v 3.02064 h -45.3135 v 59.57959 h 45.3135 v 3.02064 h -45.3135 v 59.57764 h 45.3135 v 3.02063 h -45.3135 v 59.57568 h 45.3135 v 3.02064 h -45.3135 v 59.57765 h 45.3135 v 3.02063 h -45.3135 v 59.57764 h 45.3135 v 3.02063 h -45.3135 v 59.57959 h 45.3135 v 3.02064 h -45.3135 v 88.44153 h 90.6251 z"
       style="display:inline;fill:none;fill-rule:evenodd;stroke:#000000;stroke-width:0.377953;stroke-linecap:round;stroke-miterlimit:2;stroke-dasharray:none;stroke-opacity:1;paint-order:stroke fill markers"
       id="path21" />
    <path
       d="m 2064.6951,0.1889765 h -90.625 V 88.630496 h 45.3134 v 3.02065 h -45.3134 v 59.579594 h 45.3134 v 3.02064 h -45.3134 v 59.57763 h 45.3134 v 3.02064 h -45.3134 v 59.57763 h 45.3134 v 3.02259 h -45.3134 v 59.57374 h 45.3134 v 3.02064 h -45.3134 v 59.57763 h 45.3134 v 3.02064 h -45.3134 v 59.57959 h 45.3134 v 3.02064 h -45.3134 v 59.57764 h 45.3134 v 3.02063 h -45.3134 v 59.57568 h 45.3134 v 3.02064 h -45.3134 v 59.57765 h 45.3134 v 3.02063 h -45.3134 v 59.57764 h 45.3134 v 3.02063 h -45.3134 v 59.57959 h 45.3134 v 3.02064 h -45.3134 v 88.44153 h 90.625 z"
       style="display:inline;fill:none;fill-rule:evenodd;stroke:#000000;stroke-width:0.377953;stroke-linecap:round;stroke-miterlimit:2;stroke-dasharray:none;stroke-opacity:1;paint-order:stroke fill markers"
       id="path22" />
    <path
       d="m 2158.6895,0.1889765 h -90.6251 V 88.630496 h 45.3134 v 3.02065 h -45.3134 v 59.579594 h 45.3134 v 3.02064 h -45.3134 v 59.57763 h 45.3134 v 3.02064 h -45.3134 v 59.57763 h 45.3134 v 3.02259 h -45.3134 v 59.57374 h 45.3134 v 3.02064 h -45.3134 v 59.57763 h 45.3134 v 3.02064 h -45.3134 v 59.57959 h 45.3134 v 3.02064 h -45.3134 v 59.57764 h 45.3134 v 3.02063 h -45.3134 v 59.57568 h 45.3134 v 3.02064 h -45.3134 v 59.57765 h 45.3134 v 3.02063 h -45.3134 v 59.57764 h 45.3134 v 3.02063 h -45.3134 v 59.57959 h 45.3134 v 3.02064 h -45.3134 v 88.44153 h 90.6251 z"
       style="display:inline;fill:none;fill-rule:evenodd;stroke:#000000;stroke-width:0.377953;stroke-linecap:round;stroke-miterlimit:2;stroke-dasharray:none;stroke-opacity:1;paint-order:stroke fill markers"
       id="path23" />
    <path
       d="M 466.79131,0.1889765 H 376.16626 V 13.110596 h 45.3135 v 3.02065 h -45.3135 v 59.57763 h 45.3135 v 3.02064 h -45.3135 V 138.3091 h 45.3135 v 3.02064 h -45.3135 v 59.57763 h 45.3135 v 3.02064 h -45.3135 v 59.57569 h 45.3135 v 3.02063 h -45.3135 v 59.57764 h 45.3135 v 3.02064 h -45.3135 v 59.57763 h 45.3135 v 3.02065 h -45.3135 v 59.57958 h 45.3135 v 3.02064 h -45.3135 v 59.57374 h 45.3135 v 3.02064 h -45.3135 v 59.57958 h 45.3135 v 3.02065 h -45.3135 v 59.57763 h 45.3135 v 3.02064 h -45.3135 v 59.57762 h 45.3135 v 3.02064 h -45.3135 v 12.92163 h 90.62505 z"
       style="display:inline;fill:none;fill-rule:evenodd;stroke:#000000;stroke-width:0.377953;stroke-linecap:round;stroke-miterlimit:2;stroke-dasharray:none;stroke-opacity:1;paint-order:stroke fill markers"
       id="path25" />
    <path
       d="M 560.78565,0.1889765 H 470.16058 V 13.110596 h 45.31353 v 3.02064 h -45.31353 v 59.57763 h 45.31353 v 3.02064 h -45.31353 v 59.579584 h 45.31353 v 3.02065 h -45.31353 v 59.57763 h 45.31353 v 3.02064 h -45.31353 v 59.57568 h 45.31353 v 3.02063 h -45.31353 v 59.57764 h 45.31353 v 3.02065 h -45.31353 v 59.57763 h 45.31353 v 3.02064 h -45.31353 v 59.57958 h 45.31353 v 3.02064 h -45.31353 v 59.57375 h 45.31353 v 3.02063 h -45.31353 v 59.57958 h 45.31353 v 3.02064 h -45.31353 v 59.57763 h 45.31353 v 3.02064 h -45.31353 v 59.57764 h 45.31353 v 3.02064 h -45.31353 v 12.92162 h 90.62507 z"
       style="display:inline;fill:none;fill-rule:evenodd;stroke:#000000;stroke-width:0.377953;stroke-linecap:round;stroke-miterlimit:2;stroke-dasharray:none;stroke-opacity:1;paint-order:stroke fill markers"
       id="path26" />
  </g>
</svg>
